<?xml version="1.0" encoding="UTF-8" standalone="no"?>
<!DOCTYPE svg PUBLIC "-//W3C//DTD SVG 1.1//EN"
 "http://www.w3.org/Graphics/SVG/1.1/DTD/svg11.dtd">
<!-- Generated by graphviz version 2.40.1 (20161225.0304)
 -->
<!-- Title: G Pages: 1 -->
<svg width="184pt" height="258pt"
 viewBox="0.00 0.00 184.00 258.00" xmlns="http://www.w3.org/2000/svg" xmlns:xlink="http://www.w3.org/1999/xlink">
<g id="graph0" class="graph" transform="scale(1 1) rotate(0) translate(4 254)">
<title>G</title>
<polygon fill="#ffffff" stroke="transparent" points="-4,4 -4,-254 180,-254 180,4 -4,4"/>
<g id="clust1" class="cluster">
<title>cluster_Global</title>
<path fill="none" stroke="#c0c0c0" d="M20,-8C20,-8 156,-8 156,-8 162,-8 168,-14 168,-20 168,-20 168,-230 168,-230 168,-236 162,-242 156,-242 156,-242 20,-242 20,-242 14,-242 8,-236 8,-230 8,-230 8,-20 8,-20 8,-14 14,-8 20,-8"/>
<text text-anchor="middle" x="88" y="-229.2" font-family="Times,serif" font-size="11.00" fill="#c0c0c0">Global</text>
</g>
<g id="clust2" class="cluster">
<title>cluster_\tomk79</title>
<path fill="none" stroke="#c0c0c0" d="M28,-16C28,-16 148,-16 148,-16 154,-16 160,-22 160,-28 160,-28 160,-202 160,-202 160,-208 154,-214 148,-214 148,-214 28,-214 28,-214 22,-214 16,-208 16,-202 16,-202 16,-28 16,-28 16,-22 22,-16 28,-16"/>
<text text-anchor="middle" x="88" y="-201.2" font-family="Times,serif" font-size="11.00" fill="#c0c0c0">tomk79</text>
</g>
<g id="clust3" class="cluster">
<title>cluster_\tomk79\pickles2</title>
<path fill="none" stroke="#c0c0c0" d="M36,-24C36,-24 140,-24 140,-24 146,-24 152,-30 152,-36 152,-36 152,-174 152,-174 152,-180 146,-186 140,-186 140,-186 36,-186 36,-186 30,-186 24,-180 24,-174 24,-174 24,-36 24,-36 24,-30 30,-24 36,-24"/>
<text text-anchor="middle" x="88" y="-173.2" font-family="Times,serif" font-size="11.00" fill="#c0c0c0">pickles2</text>
</g>
<g id="clust4" class="cluster">
<title>cluster_\tomk79\pickles2\multitheme</title>
<path fill="none" stroke="#c0c0c0" d="M44,-32C44,-32 132,-32 132,-32 138,-32 144,-38 144,-44 144,-44 144,-146 144,-146 144,-152 138,-158 132,-158 132,-158 44,-158 44,-158 38,-158 32,-152 32,-146 32,-146 32,-44 32,-44 32,-38 38,-32 44,-32"/>
<text text-anchor="middle" x="88" y="-145.2" font-family="Times,serif" font-size="11.00" fill="#c0c0c0">multitheme</text>
</g>
<!-- \\tomk79\\pickles2\\multitheme\\theme -->
<g id="node1" class="node">
<title>\\tomk79\\pickles2\\multitheme\\theme</title>
<polygon fill="none" stroke="#000000" points="115,-130 61,-130 61,-94 115,-94 115,-130"/>
<text text-anchor="middle" x="88" y="-109.2" font-family="Courier,monospace" font-size="11.00" fill="#000000">theme</text>
</g>
<!-- \\tomk79\\pickles2\\multitheme\\template_utility -->
<g id="node2" class="node">
<title>\\tomk79\\pickles2\\multitheme\\template_utility</title>
<polygon fill="none" stroke="#000000" points="136,-76 40,-76 40,-40 136,-40 136,-76"/>
<text text-anchor="middle" x="88" y="-55.2" font-family="Courier,monospace" font-size="11.00" fill="#000000">template_utility</text>
</g>
</g>
</svg>
